<svg xmlns="http://www.w3.org/2000/svg" width="1200" height="1000" viewBox="0 0 1200 1000" role="img" aria-labelledby="title"><title id="title">Architecture de transformation digitale</title><defs><linearGradient id="bg" x2="1" y2="1"><stop stop-color="#031127"/><stop offset=".55" stop-color="#073458"/><stop offset="1" stop-color="#061a35"/></linearGradient><radialGradient id="halo"><stop stop-color="#27c9ff" stop-opacity=".2"/><stop offset="1" stop-color="#27c9ff" stop-opacity="0"/></radialGradient><filter id="glow"><feGaussianBlur stdDeviation="5" result="b"/><feMerge><feMergeNode in="b"/><feMergeNode in="SourceGraphic"/></feMerge></filter></defs><rect width="100%" height="100%" fill="url(#bg)"/><circle cx="820" cy="280" r="430" fill="url(#halo)"/><g opacity=".16" stroke="#6fdcff"><path d="M600 570 L0 900"/><path d="M600 570 L100 900"/><path d="M600 570 L200 900"/><path d="M600 570 L300 900"/><path d="M600 570 L400 900"/><path d="M600 570 L500 900"/><path d="M600 570 L600 900"/><path d="M600 570 L700 900"/><path d="M600 570 L800 900"/><path d="M600 570 L900 900"/><path d="M600 570 L1000 900"/><path d="M600 570 L1100 900"/><path d="M600 570 L1200 900"/><path d="M0 650 H1200"/><path d="M0 695 H1200"/><path d="M0 740 H1200"/><path d="M0 785 H1200"/><path d="M0 830 H1200"/><path d="M0 875 H1200"/></g><circle cx="407" cy="210" r="7" fill="#9be8ff" opacity=".7"/><circle cx="430" cy="427" r="8" fill="#9be8ff" opacity=".5"/><circle cx="897" cy="729" r="3" fill="#9be8ff" opacity=".6"/><circle cx="454" cy="395" r="4" fill="#9be8ff" opacity=".8"/><circle cx="811" cy="451" r="7" fill="#9be8ff" opacity=".3"/><circle cx="899" cy="711" r="5" fill="#9be8ff" opacity=".3"/><circle cx="585" cy="655" r="8" fill="#9be8ff" opacity=".8"/><circle cx="1046" cy="538" r="5" fill="#9be8ff" opacity=".8"/><circle cx="468" cy="578" r="7" fill="#9be8ff" opacity=".3"/><circle cx="209" cy="734" r="5" fill="#9be8ff" opacity=".3"/><circle cx="451" cy="494" r="3" fill="#9be8ff" opacity=".7"/><circle cx="333" cy="276" r="4" fill="#9be8ff" opacity=".8"/><circle cx="1074" cy="420" r="7" fill="#9be8ff" opacity=".4"/><circle cx="475" cy="538" r="4" fill="#9be8ff" opacity=".9"/><circle cx="856" cy="120" r="7" fill="#9be8ff" opacity=".5"/><circle cx="704" cy="212" r="7" fill="#9be8ff" opacity=".7"/><circle cx="1085" cy="676" r="3" fill="#9be8ff" opacity=".7"/><circle cx="273" cy="544" r="8" fill="#9be8ff" opacity=".5"/><circle cx="601" cy="426" r="3" fill="#9be8ff" opacity=".3"/><circle cx="475" cy="588" r="6" fill="#9be8ff" opacity=".7"/><circle cx="1001" cy="192" r="8" fill="#9be8ff" opacity=".9"/><circle cx="346" cy="118" r="5" fill="#9be8ff" opacity=".4"/><circle cx="878" cy="548" r="5" fill="#9be8ff" opacity=".8"/><circle cx="948" cy="698" r="3" fill="#9be8ff" opacity=".9"/><circle cx="858" cy="571" r="8" fill="#9be8ff" opacity=".8"/><circle cx="935" cy="219" r="3" fill="#9be8ff" opacity=".8"/><circle cx="452" cy="331" r="6" fill="#9be8ff" opacity=".4"/><circle cx="645" cy="711" r="7" fill="#9be8ff" opacity=".9"/><circle cx="386" cy="306" r="7" fill="#9be8ff" opacity=".3"/><circle cx="763" cy="463" r="3" fill="#9be8ff" opacity=".9"/><circle cx="417" cy="607" r="5" fill="#9be8ff" opacity=".7"/><circle cx="933" cy="831" r="5" fill="#9be8ff" opacity=".4"/><circle cx="529" cy="475" r="3" fill="#9be8ff" opacity=".7"/><circle cx="299" cy="247" r="4" fill="#9be8ff" opacity=".3"/><circle cx="406" cy="749" r="4" fill="#9be8ff" opacity=".6"/><g><rect x="160" y="180" width="250" height="120" rx="28" fill="#e7f8ff" fill-opacity=".08" stroke="#67d8ff"/><circle cx="205" cy="240" r="15" fill="#45d3ff"/><rect x="510" y="180" width="250" height="120" rx="28" fill="#e7f8ff" fill-opacity=".08" stroke="#67d8ff"/><circle cx="555" cy="240" r="15" fill="#45d3ff"/><rect x="860" y="180" width="250" height="120" rx="28" fill="#e7f8ff" fill-opacity=".08" stroke="#67d8ff"/><circle cx="905" cy="240" r="15" fill="#45d3ff"/><rect x="160" y="460" width="250" height="120" rx="28" fill="#e7f8ff" fill-opacity=".08" stroke="#67d8ff"/><circle cx="205" cy="520" r="15" fill="#45d3ff"/><rect x="510" y="460" width="250" height="120" rx="28" fill="#e7f8ff" fill-opacity=".08" stroke="#67d8ff"/><circle cx="555" cy="520" r="15" fill="#45d3ff"/><rect x="860" y="460" width="250" height="120" rx="28" fill="#e7f8ff" fill-opacity=".08" stroke="#67d8ff"/><circle cx="905" cy="520" r="15" fill="#45d3ff"/><path d="M410 240H510 M760 240H860 M285 300V460 M635 300V460 M985 300V460" stroke="#61d9ff" stroke-width="5" stroke-dasharray="12 12"/></g></svg>