<svg xmlns="http://www.w3.org/2000/svg" width="1600" height="1200" viewBox="0 0 1600 1200" role="img" aria-labelledby="title"><title id="title">Réseau IA et tableaux de bord holographiques</title><defs><linearGradient id="bg" x2="1" y2="1"><stop stop-color="#031127"/><stop offset=".55" stop-color="#073458"/><stop offset="1" stop-color="#061a35"/></linearGradient><radialGradient id="halo"><stop stop-color="#27c9ff" stop-opacity=".2"/><stop offset="1" stop-color="#27c9ff" stop-opacity="0"/></radialGradient><filter id="glow"><feGaussianBlur stdDeviation="5" result="b"/><feMerge><feMergeNode in="b"/><feMergeNode in="SourceGraphic"/></feMerge></filter></defs><rect width="100%" height="100%" fill="url(#bg)"/><circle cx="820" cy="280" r="430" fill="url(#halo)"/><g opacity=".16" stroke="#6fdcff"><path d="M600 570 L0 900"/><path d="M600 570 L100 900"/><path d="M600 570 L200 900"/><path d="M600 570 L300 900"/><path d="M600 570 L400 900"/><path d="M600 570 L500 900"/><path d="M600 570 L600 900"/><path d="M600 570 L700 900"/><path d="M600 570 L800 900"/><path d="M600 570 L900 900"/><path d="M600 570 L1000 900"/><path d="M600 570 L1100 900"/><path d="M600 570 L1200 900"/><path d="M600 570 L1300 900"/><path d="M600 570 L1400 900"/><path d="M600 570 L1500 900"/><path d="M600 570 L1600 900"/><path d="M0 650 H1200"/><path d="M0 695 H1200"/><path d="M0 740 H1200"/><path d="M0 785 H1200"/><path d="M0 830 H1200"/><path d="M0 875 H1200"/></g><circle cx="544" cy="848" r="6" fill="#9be8ff" opacity=".4"/><circle cx="475" cy="179" r="3" fill="#9be8ff" opacity=".4"/><circle cx="586" cy="518" r="6" fill="#9be8ff" opacity=".8"/><circle cx="142" cy="1030" r="6" fill="#9be8ff" opacity=".6"/><circle cx="879" cy="1103" r="7" fill="#9be8ff" opacity=".4"/><circle cx="904" cy="273" r="6" fill="#9be8ff" opacity=".4"/><circle cx="120" cy="636" r="7" fill="#9be8ff" opacity=".6"/><circle cx="1051" cy="866" r="8" fill="#9be8ff" opacity=".3"/><circle cx="1437" cy="619" r="3" fill="#9be8ff" opacity=".9"/><circle cx="209" cy="881" r="7" fill="#9be8ff" opacity=".9"/><circle cx="852" cy="310" r="8" fill="#9be8ff" opacity=".3"/><circle cx="773" cy="570" r="8" fill="#9be8ff" opacity=".3"/><circle cx="1099" cy="515" r="7" fill="#9be8ff" opacity=".9"/><circle cx="371" cy="221" r="7" fill="#9be8ff" opacity=".3"/><circle cx="1080" cy="487" r="4" fill="#9be8ff" opacity=".9"/><circle cx="1265" cy="1024" r="8" fill="#9be8ff" opacity=".7"/><circle cx="991" cy="675" r="7" fill="#9be8ff" opacity=".5"/><circle cx="952" cy="366" r="4" fill="#9be8ff" opacity=".9"/><circle cx="1311" cy="289" r="7" fill="#9be8ff" opacity=".8"/><circle cx="722" cy="821" r="8" fill="#9be8ff" opacity=".9"/><circle cx="1093" cy="494" r="5" fill="#9be8ff" opacity=".4"/><circle cx="808" cy="672" r="7" fill="#9be8ff" opacity=".8"/><circle cx="226" cy="540" r="5" fill="#9be8ff" opacity=".4"/><circle cx="104" cy="695" r="5" fill="#9be8ff" opacity=".4"/><circle cx="626" cy="158" r="6" fill="#9be8ff" opacity=".5"/><circle cx="851" cy="701" r="8" fill="#9be8ff" opacity=".6"/><circle cx="438" cy="901" r="3" fill="#9be8ff" opacity=".4"/><circle cx="1438" cy="142" r="4" fill="#9be8ff" opacity=".9"/><circle cx="409" cy="704" r="3" fill="#9be8ff" opacity=".3"/><circle cx="859" cy="790" r="4" fill="#9be8ff" opacity=".7"/><circle cx="972" cy="564" r="4" fill="#9be8ff" opacity=".6"/><circle cx="1235" cy="1003" r="6" fill="#9be8ff" opacity=".6"/><circle cx="244" cy="233" r="5" fill="#9be8ff" opacity=".8"/><circle cx="274" cy="159" r="3" fill="#9be8ff" opacity=".8"/><circle cx="298" cy="827" r="4" fill="#9be8ff" opacity=".9"/><g filter="url(#glow)"><circle cx="600" cy="450" r="135" fill="none" stroke="#26c6ff" stroke-width="3"/><circle cx="600" cy="450" r="72" fill="#08a5df" fill-opacity=".28" stroke="#d9f8ff" stroke-width="2"/><path d="M600 450 L360 280" stroke="#61d9ff" opacity=".55"/><circle cx="360" cy="280" r="10" fill="#d9f8ff"/><path d="M600 450 L465 170" stroke="#61d9ff" opacity=".55"/><circle cx="465" cy="170" r="10" fill="#d9f8ff"/><path d="M600 450 L730 180" stroke="#61d9ff" opacity=".55"/><circle cx="730" cy="180" r="10" fill="#d9f8ff"/><path d="M600 450 L850 330" stroke="#61d9ff" opacity=".55"/><circle cx="850" cy="330" r="10" fill="#d9f8ff"/><path d="M600 450 L830 600" stroke="#61d9ff" opacity=".55"/><circle cx="830" cy="600" r="10" fill="#d9f8ff"/><path d="M600 450 L670 720" stroke="#61d9ff" opacity=".55"/><circle cx="670" cy="720" r="10" fill="#d9f8ff"/><path d="M600 450 L430 690" stroke="#61d9ff" opacity=".55"/><circle cx="430" cy="690" r="10" fill="#d9f8ff"/><path d="M600 450 L330 520" stroke="#61d9ff" opacity=".55"/><circle cx="330" cy="520" r="10" fill="#d9f8ff"/></g></svg>