<svg xmlns="http://www.w3.org/2000/svg" width="900" height="650" viewBox="0 0 900 650" role="img" aria-labelledby="title"><title id="title">Interface numérique inclusive</title><defs><linearGradient id="bg" x2="1" y2="1"><stop stop-color="#031127"/><stop offset=".55" stop-color="#073458"/><stop offset="1" stop-color="#061a35"/></linearGradient><radialGradient id="halo"><stop stop-color="#27c9ff" stop-opacity=".2"/><stop offset="1" stop-color="#27c9ff" stop-opacity="0"/></radialGradient><filter id="glow"><feGaussianBlur stdDeviation="5" result="b"/><feMerge><feMergeNode in="b"/><feMergeNode in="SourceGraphic"/></feMerge></filter></defs><rect width="100%" height="100%" fill="url(#bg)"/><circle cx="820" cy="280" r="430" fill="url(#halo)"/><g opacity=".16" stroke="#6fdcff"><path d="M600 570 L0 900"/><path d="M600 570 L100 900"/><path d="M600 570 L200 900"/><path d="M600 570 L300 900"/><path d="M600 570 L400 900"/><path d="M600 570 L500 900"/><path d="M600 570 L600 900"/><path d="M600 570 L700 900"/><path d="M600 570 L800 900"/><path d="M600 570 L900 900"/><path d="M0 650 H1200"/><path d="M0 695 H1200"/><path d="M0 740 H1200"/><path d="M0 785 H1200"/><path d="M0 830 H1200"/><path d="M0 875 H1200"/></g><circle cx="789" cy="445" r="8" fill="#9be8ff" opacity=".4"/><circle cx="273" cy="147" r="8" fill="#9be8ff" opacity=".9"/><circle cx="586" cy="169" r="8" fill="#9be8ff" opacity=".9"/><circle cx="402" cy="212" r="8" fill="#9be8ff" opacity=".3"/><circle cx="525" cy="267" r="7" fill="#9be8ff" opacity=".9"/><circle cx="642" cy="440" r="6" fill="#9be8ff" opacity=".6"/><circle cx="707" cy="276" r="7" fill="#9be8ff" opacity=".4"/><circle cx="711" cy="174" r="6" fill="#9be8ff" opacity=".3"/><circle cx="306" cy="355" r="5" fill="#9be8ff" opacity=".7"/><circle cx="245" cy="374" r="4" fill="#9be8ff" opacity=".4"/><circle cx="515" cy="460" r="8" fill="#9be8ff" opacity=".7"/><circle cx="285" cy="262" r="8" fill="#9be8ff" opacity=".4"/><circle cx="656" cy="486" r="5" fill="#9be8ff" opacity=".3"/><circle cx="535" cy="255" r="7" fill="#9be8ff" opacity=".4"/><circle cx="756" cy="211" r="8" fill="#9be8ff" opacity=".7"/><circle cx="487" cy="520" r="3" fill="#9be8ff" opacity=".5"/><circle cx="488" cy="272" r="5" fill="#9be8ff" opacity=".3"/><circle cx="200" cy="287" r="8" fill="#9be8ff" opacity=".9"/><circle cx="760" cy="529" r="6" fill="#9be8ff" opacity=".6"/><circle cx="692" cy="95" r="6" fill="#9be8ff" opacity=".5"/><circle cx="641" cy="456" r="4" fill="#9be8ff" opacity=".3"/><circle cx="95" cy="450" r="7" fill="#9be8ff" opacity=".8"/><circle cx="592" cy="253" r="5" fill="#9be8ff" opacity=".8"/><circle cx="575" cy="538" r="7" fill="#9be8ff" opacity=".3"/><circle cx="706" cy="179" r="3" fill="#9be8ff" opacity=".3"/><circle cx="535" cy="231" r="3" fill="#9be8ff" opacity=".7"/><circle cx="108" cy="191" r="4" fill="#9be8ff" opacity=".8"/><circle cx="156" cy="120" r="5" fill="#9be8ff" opacity=".5"/><circle cx="473" cy="452" r="5" fill="#9be8ff" opacity=".6"/><circle cx="699" cy="171" r="6" fill="#9be8ff" opacity=".8"/><circle cx="361" cy="411" r="3" fill="#9be8ff" opacity=".6"/><circle cx="559" cy="389" r="4" fill="#9be8ff" opacity=".9"/><circle cx="633" cy="431" r="8" fill="#9be8ff" opacity=".3"/><circle cx="606" cy="482" r="7" fill="#9be8ff" opacity=".8"/><circle cx="490" cy="319" r="7" fill="#9be8ff" opacity=".6"/><g transform="translate(600 450)" filter="url(#glow)"><circle r="55" fill="#e5faff"/><circle r="150" fill="none" stroke="#42d0ff" stroke-width="18" stroke-dasharray="470 300"/><circle r="260" fill="none" stroke="#42d0ff" stroke-width="10" stroke-dasharray="620 1015"/><path d="M-330 0H330 M0-330V330" stroke="#96e6ff" opacity=".28" stroke-width="3"/></g></svg>