<svg xmlns="http://www.w3.org/2000/svg" width="900" height="650" viewBox="0 0 900 650" role="img" aria-labelledby="title"><title id="title">Analytics et croissance digitale</title><defs><linearGradient id="bg" x2="1" y2="1"><stop stop-color="#031127"/><stop offset=".55" stop-color="#073458"/><stop offset="1" stop-color="#061a35"/></linearGradient><radialGradient id="halo"><stop stop-color="#27c9ff" stop-opacity=".2"/><stop offset="1" stop-color="#27c9ff" stop-opacity="0"/></radialGradient><filter id="glow"><feGaussianBlur stdDeviation="5" result="b"/><feMerge><feMergeNode in="b"/><feMergeNode in="SourceGraphic"/></feMerge></filter></defs><rect width="100%" height="100%" fill="url(#bg)"/><circle cx="820" cy="280" r="430" fill="url(#halo)"/><g opacity=".16" stroke="#6fdcff"><path d="M600 570 L0 900"/><path d="M600 570 L100 900"/><path d="M600 570 L200 900"/><path d="M600 570 L300 900"/><path d="M600 570 L400 900"/><path d="M600 570 L500 900"/><path d="M600 570 L600 900"/><path d="M600 570 L700 900"/><path d="M600 570 L800 900"/><path d="M600 570 L900 900"/><path d="M0 650 H1200"/><path d="M0 695 H1200"/><path d="M0 740 H1200"/><path d="M0 785 H1200"/><path d="M0 830 H1200"/><path d="M0 875 H1200"/></g><circle cx="592" cy="335" r="3" fill="#9be8ff" opacity=".7"/><circle cx="815" cy="569" r="3" fill="#9be8ff" opacity=".4"/><circle cx="215" cy="205" r="5" fill="#9be8ff" opacity=".4"/><circle cx="497" cy="179" r="4" fill="#9be8ff" opacity=".4"/><circle cx="530" cy="121" r="8" fill="#9be8ff" opacity=".6"/><circle cx="679" cy="431" r="7" fill="#9be8ff" opacity=".5"/><circle cx="504" cy="506" r="6" fill="#9be8ff" opacity=".7"/><circle cx="783" cy="549" r="8" fill="#9be8ff" opacity=".5"/><circle cx="788" cy="378" r="8" fill="#9be8ff" opacity=".6"/><circle cx="455" cy="466" r="7" fill="#9be8ff" opacity=".4"/><circle cx="396" cy="226" r="8" fill="#9be8ff" opacity=".6"/><circle cx="210" cy="519" r="5" fill="#9be8ff" opacity=".6"/><circle cx="730" cy="349" r="7" fill="#9be8ff" opacity=".9"/><circle cx="604" cy="238" r="4" fill="#9be8ff" opacity=".7"/><circle cx="619" cy="290" r="4" fill="#9be8ff" opacity=".9"/><circle cx="580" cy="421" r="6" fill="#9be8ff" opacity=".3"/><circle cx="378" cy="291" r="3" fill="#9be8ff" opacity=".3"/><circle cx="460" cy="349" r="5" fill="#9be8ff" opacity=".5"/><circle cx="464" cy="447" r="3" fill="#9be8ff" opacity=".7"/><circle cx="226" cy="515" r="8" fill="#9be8ff" opacity=".3"/><circle cx="161" cy="513" r="4" fill="#9be8ff" opacity=".6"/><circle cx="673" cy="155" r="6" fill="#9be8ff" opacity=".7"/><circle cx="725" cy="386" r="3" fill="#9be8ff" opacity=".5"/><circle cx="594" cy="110" r="7" fill="#9be8ff" opacity=".8"/><circle cx="751" cy="278" r="5" fill="#9be8ff" opacity=".3"/><circle cx="407" cy="422" r="3" fill="#9be8ff" opacity=".6"/><circle cx="253" cy="420" r="4" fill="#9be8ff" opacity=".6"/><circle cx="453" cy="385" r="5" fill="#9be8ff" opacity=".5"/><circle cx="519" cy="281" r="8" fill="#9be8ff" opacity=".8"/><circle cx="766" cy="109" r="8" fill="#9be8ff" opacity=".4"/><circle cx="806" cy="429" r="8" fill="#9be8ff" opacity=".5"/><circle cx="142" cy="106" r="4" fill="#9be8ff" opacity=".7"/><circle cx="449" cy="337" r="5" fill="#9be8ff" opacity=".6"/><circle cx="654" cy="178" r="5" fill="#9be8ff" opacity=".4"/><circle cx="742" cy="226" r="3" fill="#9be8ff" opacity=".9"/><g filter="url(#glow)"><path d="M180 650 C330 620 350 450 500 500 S690 270 820 340 S960 180 1080 220" fill="none" stroke="#39d0ff" stroke-width="14"/><path d="M180 710 L1080 710" stroke="#8bdfff" opacity=".3"/><rect x="210" y="580" width="70" height="130" rx="18" fill="#08a5df" opacity=".3"/><rect x="345" y="535" width="70" height="175" rx="18" fill="#08a5df" opacity=".4"/><rect x="480" y="490" width="70" height="220" rx="18" fill="#08a5df" opacity=".5"/><rect x="615" y="445" width="70" height="265" rx="18" fill="#08a5df" opacity=".6"/><rect x="750" y="400" width="70" height="310" rx="18" fill="#08a5df" opacity=".7"/><rect x="885" y="355" width="70" height="355" rx="18" fill="#08a5df" opacity=".8"/></g></svg>