<svg xmlns="http://www.w3.org/2000/svg" width="900" height="650" viewBox="0 0 900 650" role="img" aria-labelledby="title"><title id="title">Interfaces web et mobiles premium</title><defs><linearGradient id="bg" x2="1" y2="1"><stop stop-color="#031127"/><stop offset=".55" stop-color="#073458"/><stop offset="1" stop-color="#061a35"/></linearGradient><radialGradient id="halo"><stop stop-color="#27c9ff" stop-opacity=".2"/><stop offset="1" stop-color="#27c9ff" stop-opacity="0"/></radialGradient><filter id="glow"><feGaussianBlur stdDeviation="5" result="b"/><feMerge><feMergeNode in="b"/><feMergeNode in="SourceGraphic"/></feMerge></filter></defs><rect width="100%" height="100%" fill="url(#bg)"/><circle cx="820" cy="280" r="430" fill="url(#halo)"/><g opacity=".16" stroke="#6fdcff"><path d="M600 570 L0 900"/><path d="M600 570 L100 900"/><path d="M600 570 L200 900"/><path d="M600 570 L300 900"/><path d="M600 570 L400 900"/><path d="M600 570 L500 900"/><path d="M600 570 L600 900"/><path d="M600 570 L700 900"/><path d="M600 570 L800 900"/><path d="M600 570 L900 900"/><path d="M0 650 H1200"/><path d="M0 695 H1200"/><path d="M0 740 H1200"/><path d="M0 785 H1200"/><path d="M0 830 H1200"/><path d="M0 875 H1200"/></g><circle cx="597" cy="339" r="8" fill="#9be8ff" opacity=".4"/><circle cx="698" cy="122" r="4" fill="#9be8ff" opacity=".3"/><circle cx="223" cy="264" r="6" fill="#9be8ff" opacity=".8"/><circle cx="667" cy="151" r="8" fill="#9be8ff" opacity=".5"/><circle cx="439" cy="256" r="5" fill="#9be8ff" opacity=".3"/><circle cx="741" cy="517" r="6" fill="#9be8ff" opacity=".4"/><circle cx="142" cy="538" r="7" fill="#9be8ff" opacity=".3"/><circle cx="673" cy="178" r="4" fill="#9be8ff" opacity=".5"/><circle cx="521" cy="316" r="3" fill="#9be8ff" opacity=".3"/><circle cx="285" cy="399" r="4" fill="#9be8ff" opacity=".6"/><circle cx="564" cy="494" r="4" fill="#9be8ff" opacity=".6"/><circle cx="204" cy="145" r="7" fill="#9be8ff" opacity=".8"/><circle cx="543" cy="421" r="4" fill="#9be8ff" opacity=".8"/><circle cx="530" cy="353" r="8" fill="#9be8ff" opacity=".3"/><circle cx="812" cy="565" r="6" fill="#9be8ff" opacity=".7"/><circle cx="483" cy="508" r="5" fill="#9be8ff" opacity=".6"/><circle cx="310" cy="116" r="4" fill="#9be8ff" opacity=".3"/><circle cx="536" cy="147" r="3" fill="#9be8ff" opacity=".4"/><circle cx="84" cy="452" r="7" fill="#9be8ff" opacity=".7"/><circle cx="103" cy="425" r="5" fill="#9be8ff" opacity=".9"/><circle cx="522" cy="360" r="3" fill="#9be8ff" opacity=".8"/><circle cx="694" cy="347" r="8" fill="#9be8ff" opacity=".7"/><circle cx="285" cy="346" r="4" fill="#9be8ff" opacity=".5"/><circle cx="618" cy="286" r="8" fill="#9be8ff" opacity=".7"/><circle cx="742" cy="190" r="3" fill="#9be8ff" opacity=".5"/><circle cx="707" cy="241" r="3" fill="#9be8ff" opacity=".8"/><circle cx="408" cy="564" r="6" fill="#9be8ff" opacity=".4"/><circle cx="727" cy="241" r="3" fill="#9be8ff" opacity=".7"/><circle cx="509" cy="471" r="5" fill="#9be8ff" opacity=".9"/><circle cx="408" cy="354" r="5" fill="#9be8ff" opacity=".8"/><circle cx="445" cy="491" r="5" fill="#9be8ff" opacity=".8"/><circle cx="191" cy="190" r="6" fill="#9be8ff" opacity=".5"/><circle cx="467" cy="389" r="5" fill="#9be8ff" opacity=".4"/><circle cx="377" cy="293" r="7" fill="#9be8ff" opacity=".6"/><circle cx="780" cy="358" r="8" fill="#9be8ff" opacity=".8"/><g filter="url(#glow)"><rect x="170" y="145" width="720" height="510" rx="34" fill="#dff7ff" fill-opacity=".09" stroke="#83e2ff" stroke-width="3"/><rect x="760" y="310" width="280" height="430" rx="38" fill="#dff7ff" fill-opacity=".12" stroke="#c4f3ff" stroke-width="3"/><g fill="#45cfff" opacity=".35"><rect x="230" y="230" width="590" height="54" rx="16"/><rect x="230" y="320" width="260" height="250" rx="22"/><rect x="520" y="320" width="300" height="110" rx="22"/><rect x="520" y="460" width="300" height="110" rx="22"/></g></g></svg>