<svg xmlns="http://www.w3.org/2000/svg" width="900" height="650" viewBox="0 0 900 650" role="img" aria-labelledby="title"><title id="title">Système de marque digital</title><defs><linearGradient id="bg" x2="1" y2="1"><stop stop-color="#031127"/><stop offset=".55" stop-color="#073458"/><stop offset="1" stop-color="#061a35"/></linearGradient><radialGradient id="halo"><stop stop-color="#27c9ff" stop-opacity=".2"/><stop offset="1" stop-color="#27c9ff" stop-opacity="0"/></radialGradient><filter id="glow"><feGaussianBlur stdDeviation="5" result="b"/><feMerge><feMergeNode in="b"/><feMergeNode in="SourceGraphic"/></feMerge></filter></defs><rect width="100%" height="100%" fill="url(#bg)"/><circle cx="820" cy="280" r="430" fill="url(#halo)"/><g opacity=".16" stroke="#6fdcff"><path d="M600 570 L0 900"/><path d="M600 570 L100 900"/><path d="M600 570 L200 900"/><path d="M600 570 L300 900"/><path d="M600 570 L400 900"/><path d="M600 570 L500 900"/><path d="M600 570 L600 900"/><path d="M600 570 L700 900"/><path d="M600 570 L800 900"/><path d="M600 570 L900 900"/><path d="M0 650 H1200"/><path d="M0 695 H1200"/><path d="M0 740 H1200"/><path d="M0 785 H1200"/><path d="M0 830 H1200"/><path d="M0 875 H1200"/></g><circle cx="531" cy="469" r="5" fill="#9be8ff" opacity=".7"/><circle cx="780" cy="223" r="6" fill="#9be8ff" opacity=".9"/><circle cx="383" cy="238" r="6" fill="#9be8ff" opacity=".9"/><circle cx="589" cy="318" r="8" fill="#9be8ff" opacity=".8"/><circle cx="171" cy="345" r="8" fill="#9be8ff" opacity=".6"/><circle cx="429" cy="159" r="7" fill="#9be8ff" opacity=".8"/><circle cx="190" cy="275" r="8" fill="#9be8ff" opacity=".7"/><circle cx="762" cy="323" r="5" fill="#9be8ff" opacity=".6"/><circle cx="666" cy="286" r="4" fill="#9be8ff" opacity=".7"/><circle cx="615" cy="453" r="7" fill="#9be8ff" opacity=".4"/><circle cx="229" cy="348" r="3" fill="#9be8ff" opacity=".3"/><circle cx="641" cy="496" r="8" fill="#9be8ff" opacity=".9"/><circle cx="398" cy="201" r="4" fill="#9be8ff" opacity=".8"/><circle cx="490" cy="219" r="4" fill="#9be8ff" opacity=".3"/><circle cx="94" cy="108" r="6" fill="#9be8ff" opacity=".8"/><circle cx="296" cy="252" r="5" fill="#9be8ff" opacity=".3"/><circle cx="85" cy="466" r="3" fill="#9be8ff" opacity=".8"/><circle cx="211" cy="384" r="5" fill="#9be8ff" opacity=".8"/><circle cx="398" cy="95" r="3" fill="#9be8ff" opacity=".9"/><circle cx="298" cy="258" r="5" fill="#9be8ff" opacity=".9"/><circle cx="175" cy="302" r="4" fill="#9be8ff" opacity=".9"/><circle cx="80" cy="535" r="8" fill="#9be8ff" opacity=".3"/><circle cx="608" cy="351" r="4" fill="#9be8ff" opacity=".6"/><circle cx="814" cy="509" r="6" fill="#9be8ff" opacity=".3"/><circle cx="515" cy="349" r="4" fill="#9be8ff" opacity=".3"/><circle cx="229" cy="426" r="8" fill="#9be8ff" opacity=".9"/><circle cx="760" cy="451" r="5" fill="#9be8ff" opacity=".7"/><circle cx="526" cy="426" r="3" fill="#9be8ff" opacity=".5"/><circle cx="499" cy="445" r="8" fill="#9be8ff" opacity=".4"/><circle cx="108" cy="235" r="3" fill="#9be8ff" opacity=".9"/><circle cx="579" cy="251" r="8" fill="#9be8ff" opacity=".4"/><circle cx="310" cy="118" r="6" fill="#9be8ff" opacity=".9"/><circle cx="789" cy="248" r="5" fill="#9be8ff" opacity=".5"/><circle cx="614" cy="231" r="7" fill="#9be8ff" opacity=".3"/><circle cx="495" cy="496" r="4" fill="#9be8ff" opacity=".8"/><g transform="translate(600 450)" filter="url(#glow)"><rect x="-310" y="-210" width="150" height="150" rx="32" transform="rotate(0)" fill="#20bff4" fill-opacity=".2" stroke="#bdefff"/><rect x="-205" y="-130" width="150" height="150" rx="32" transform="rotate(12)" fill="#20bff4" fill-opacity=".3" stroke="#bdefff"/><rect x="-100" y="-210" width="150" height="150" rx="32" transform="rotate(24)" fill="#20bff4" fill-opacity=".4" stroke="#bdefff"/><rect x="5" y="-130" width="150" height="150" rx="32" transform="rotate(36)" fill="#20bff4" fill-opacity=".5" stroke="#bdefff"/><rect x="110" y="-210" width="150" height="150" rx="32" transform="rotate(48)" fill="#20bff4" fill-opacity=".6" stroke="#bdefff"/><rect x="215" y="-130" width="150" height="150" rx="32" transform="rotate(60)" fill="#20bff4" fill-opacity=".7" stroke="#bdefff"/><circle r="95" fill="#ecfbff" fill-opacity=".13" stroke="#7cddff" stroke-width="4"/></g></svg>