<svg xmlns="http://www.w3.org/2000/svg" width="900" height="650" viewBox="0 0 900 650" role="img" aria-labelledby="title"><title id="title">Réseau neuronal holographique</title><defs><linearGradient id="bg" x2="1" y2="1"><stop stop-color="#031127"/><stop offset=".55" stop-color="#073458"/><stop offset="1" stop-color="#061a35"/></linearGradient><radialGradient id="halo"><stop stop-color="#27c9ff" stop-opacity=".2"/><stop offset="1" stop-color="#27c9ff" stop-opacity="0"/></radialGradient><filter id="glow"><feGaussianBlur stdDeviation="5" result="b"/><feMerge><feMergeNode in="b"/><feMergeNode in="SourceGraphic"/></feMerge></filter></defs><rect width="100%" height="100%" fill="url(#bg)"/><circle cx="820" cy="280" r="430" fill="url(#halo)"/><g opacity=".16" stroke="#6fdcff"><path d="M600 570 L0 900"/><path d="M600 570 L100 900"/><path d="M600 570 L200 900"/><path d="M600 570 L300 900"/><path d="M600 570 L400 900"/><path d="M600 570 L500 900"/><path d="M600 570 L600 900"/><path d="M600 570 L700 900"/><path d="M600 570 L800 900"/><path d="M600 570 L900 900"/><path d="M0 650 H1200"/><path d="M0 695 H1200"/><path d="M0 740 H1200"/><path d="M0 785 H1200"/><path d="M0 830 H1200"/><path d="M0 875 H1200"/></g><circle cx="444" cy="510" r="8" fill="#9be8ff" opacity=".7"/><circle cx="679" cy="275" r="8" fill="#9be8ff" opacity=".6"/><circle cx="280" cy="340" r="7" fill="#9be8ff" opacity=".7"/><circle cx="163" cy="227" r="4" fill="#9be8ff" opacity=".3"/><circle cx="590" cy="465" r="5" fill="#9be8ff" opacity=".6"/><circle cx="199" cy="409" r="5" fill="#9be8ff" opacity=".5"/><circle cx="360" cy="501" r="7" fill="#9be8ff" opacity=".5"/><circle cx="363" cy="544" r="8" fill="#9be8ff" opacity=".6"/><circle cx="330" cy="275" r="4" fill="#9be8ff" opacity=".4"/><circle cx="596" cy="472" r="6" fill="#9be8ff" opacity=".4"/><circle cx="319" cy="506" r="7" fill="#9be8ff" opacity=".7"/><circle cx="280" cy="278" r="6" fill="#9be8ff" opacity=".9"/><circle cx="188" cy="496" r="3" fill="#9be8ff" opacity=".6"/><circle cx="166" cy="425" r="4" fill="#9be8ff" opacity=".9"/><circle cx="660" cy="308" r="3" fill="#9be8ff" opacity=".9"/><circle cx="220" cy="101" r="7" fill="#9be8ff" opacity=".4"/><circle cx="781" cy="225" r="3" fill="#9be8ff" opacity=".3"/><circle cx="553" cy="325" r="8" fill="#9be8ff" opacity=".5"/><circle cx="659" cy="137" r="4" fill="#9be8ff" opacity=".7"/><circle cx="446" cy="532" r="8" fill="#9be8ff" opacity=".3"/><circle cx="407" cy="494" r="3" fill="#9be8ff" opacity=".9"/><circle cx="165" cy="529" r="4" fill="#9be8ff" opacity=".8"/><circle cx="455" cy="514" r="3" fill="#9be8ff" opacity=".9"/><circle cx="316" cy="461" r="3" fill="#9be8ff" opacity=".7"/><circle cx="406" cy="203" r="5" fill="#9be8ff" opacity=".8"/><circle cx="446" cy="257" r="3" fill="#9be8ff" opacity=".7"/><circle cx="196" cy="559" r="8" fill="#9be8ff" opacity=".7"/><circle cx="436" cy="312" r="4" fill="#9be8ff" opacity=".4"/><circle cx="341" cy="547" r="6" fill="#9be8ff" opacity=".4"/><circle cx="521" cy="462" r="3" fill="#9be8ff" opacity=".3"/><circle cx="627" cy="203" r="3" fill="#9be8ff" opacity=".5"/><circle cx="260" cy="262" r="8" fill="#9be8ff" opacity=".4"/><circle cx="191" cy="116" r="3" fill="#9be8ff" opacity=".7"/><circle cx="261" cy="512" r="4" fill="#9be8ff" opacity=".7"/><circle cx="734" cy="257" r="5" fill="#9be8ff" opacity=".4"/><g filter="url(#glow)"><circle cx="600" cy="450" r="135" fill="none" stroke="#26c6ff" stroke-width="3"/><circle cx="600" cy="450" r="72" fill="#08a5df" fill-opacity=".28" stroke="#d9f8ff" stroke-width="2"/><path d="M600 450 L360 280" stroke="#61d9ff" opacity=".55"/><circle cx="360" cy="280" r="10" fill="#d9f8ff"/><path d="M600 450 L465 170" stroke="#61d9ff" opacity=".55"/><circle cx="465" cy="170" r="10" fill="#d9f8ff"/><path d="M600 450 L730 180" stroke="#61d9ff" opacity=".55"/><circle cx="730" cy="180" r="10" fill="#d9f8ff"/><path d="M600 450 L850 330" stroke="#61d9ff" opacity=".55"/><circle cx="850" cy="330" r="10" fill="#d9f8ff"/><path d="M600 450 L830 600" stroke="#61d9ff" opacity=".55"/><circle cx="830" cy="600" r="10" fill="#d9f8ff"/><path d="M600 450 L670 720" stroke="#61d9ff" opacity=".55"/><circle cx="670" cy="720" r="10" fill="#d9f8ff"/><path d="M600 450 L430 690" stroke="#61d9ff" opacity=".55"/><circle cx="430" cy="690" r="10" fill="#d9f8ff"/><path d="M600 450 L330 520" stroke="#61d9ff" opacity=".55"/><circle cx="330" cy="520" r="10" fill="#d9f8ff"/></g></svg>