<svg xmlns="http://www.w3.org/2000/svg" width="1200" height="780" viewBox="0 0 1200 780" role="img" aria-label="Portfolio Coozzy">
  <rect width="1200" height="780" fill="#f7fbfe"/><rect width="1200" height="260" fill="#43b4d8"/>
  <text x="600" y="82" text-anchor="middle" font-family="Inter,Arial" font-size="54" font-weight="900" fill="white">Coozzy</text><text x="600" y="124" text-anchor="middle" font-family="Inter,Arial" font-size="26" fill="white">Le premier portail de Matching immobilier</text>
  <rect x="250" y="150" width="700" height="360" rx="10" fill="white" filter="url(#s)"/><rect x="250" y="150" width="700" height="48" rx="10" fill="#403a4d"/><circle cx="282" cy="174" r="12" fill="#ef3f4b"/><rect x="320" y="250" width="560" height="54" rx="6" fill="white" opacity=".9"/><rect x="330" y="392" width="155" height="48" fill="#f5f7fa"/><rect x="490" y="392" width="155" height="48" fill="#f5f7fa"/><rect x="650" y="392" width="155" height="48" fill="#f5f7fa"/><rect x="810" y="392" width="105" height="48" fill="#ff4b5a"/><text x="600" y="352" text-anchor="middle" font-family="Inter,Arial" font-size="38" font-weight="900" fill="white">WER SUCHT, WIRD GEFUNDEN</text><rect x="250" y="198" width="700" height="190" fill="#071b33" opacity=".18"/><path d="M250 388L950 198v190z" fill="#ffb37b" opacity=".65"/>
  <rect x="110" y="230" width="280" height="430" fill="white" opacity=".94"/><rect x="810" y="230" width="280" height="430" fill="white" opacity=".94"/><rect x="900" y="285" width="160" height="320" fill="#d7ecff"/><path d="M905 390c70-90 70 60 145-45" stroke="#f0a93d" stroke-width="12" fill="none"/><path d="M940 290c-80 100 40 120-10 310" stroke="#08a5df" stroke-width="8" fill="none" opacity=".7"/>
  <g font-family="Inter,Arial" fill="#89929c"><circle cx="120" cy="720" r="44" fill="#08a5df"/><text x="120" y="738" font-size="54" font-weight="900" text-anchor="middle" fill="white">1</text><text x="210" y="728" font-size="26">Algorithme Matching</text><circle cx="420" cy="720" r="44" fill="#55b9e8"/><text x="420" y="738" font-size="54" font-weight="900" text-anchor="middle" fill="white">2</text><text x="510" y="728" font-size="26">Messagerie interne</text><circle cx="760" cy="720" r="44" fill="#3e4848"/><text x="760" y="738" font-size="54" font-weight="900" text-anchor="middle" fill="white">3</text><text x="850" y="728" font-size="26">Gestion des visites</text></g>
  <defs><filter id="s" x="220" y="120" width="760" height="420"><feDropShadow dx="0" dy="20" stdDeviation="18" flood-color="#071b33" flood-opacity=".20"/></filter></defs>
</svg>
