<svg xmlns="http://www.w3.org/2000/svg" width="1200" height="780" viewBox="0 0 1200 780" role="img" aria-label="Portfolio Wall Street English"><rect width="1200" height="780" fill="#fff"/><text x="600" y="88" text-anchor="middle" font-family="Inter,Arial" font-size="56" font-weight="900" fill="#8c939c">Wall Street English</text><g transform="translate(95 190)"><rect width="300" height="350" rx="8" fill="#fff" stroke="#e0e4e9"/><text x="30" y="45" font-family="Inter,Arial" font-size="18" font-weight="800" fill="#222">Wall Street English (MA)</text><rect x="25" y="110" width="250" height="145" fill="#08a5df"/><rect x="25" y="255" width="250" height="58" fill="#ef3528"/><text x="150" y="292" text-anchor="middle" font-family="Inter,Arial" font-size="28" font-weight="900" fill="white">36H OFFERTES</text><text x="40" y="340" font-family="Inter,Arial" font-size="18" font-weight="900" fill="#222">2 mois d'Anglais OFFERTS</text></g><g transform="translate(450 190)"><rect width="300" height="350" rx="8" fill="#fff" stroke="#e0e4e9"/><text x="30" y="45" font-family="Inter,Arial" font-size="18" font-weight="800" fill="#222">Wall Street English (MA)</text><rect x="25" y="110" width="250" height="145" fill="#fff4e8"/><circle cx="86" cy="172" r="48" fill="#f8fbff" stroke="#183a68" stroke-width="3"/><text x="86" y="176" text-anchor="middle" font-family="Inter,Arial" font-size="22" font-weight="900" fill="#ef3528">N°1</text><text x="190" y="165" text-anchor="middle" font-family="Inter,Arial" font-size="20" font-weight="900" fill="#ef3528">I Speak English</text><text x="40" y="340" font-family="Inter,Arial" font-size="18" font-weight="900" fill="#222">2 mois d'Anglais OFFERTS</text></g><g transform="translate(805 190)"><rect width="300" height="350" rx="8" fill="#fff" stroke="#e0e4e9"/><text x="30" y="45" font-family="Inter,Arial" font-size="18" font-weight="800" fill="#222">Wall Street English (MA)</text><rect x="25" y="110" width="250" height="145" fill="#f7eee8"/><rect x="210" y="120" width="45" height="125" fill="#b31d28"/><rect x="158" y="140" width="80" height="95" fill="#071b33" opacity=".75"/><text x="150" y="145" text-anchor="middle" font-family="Inter,Arial" font-size="18" font-weight="900" fill="#08a5df">L'ANGLAIS</text><text x="40" y="340" font-family="Inter,Arial" font-size="18" font-weight="900" fill="#222">2 mois d'Anglais OFFERTS</text></g><rect y="600" width="1200" height="180" fill="#334255"/><circle cx="120" cy="685" r="22" fill="#08a5df"/><text x="175" y="700" font-family="Inter,Arial" font-size="34" fill="#fff">Lead generation</text><circle cx="640" cy="685" r="22" fill="#08a5df"/><text x="695" y="700" font-family="Inter,Arial" font-size="34" fill="#fff">Targeting</text></svg>
