<svg xmlns="http://www.w3.org/2000/svg" width="900" height="720" viewBox="0 0 900 720" role="img" aria-label="Atelier conseil YMKEN"><rect width="900" height="720" fill="#eef2f6"/><rect x="70" y="90" width="760" height="520" rx="34" fill="#fff"/><rect x="110" y="130" width="260" height="190" fill="#f3f6f9"/><rect x="410" y="130" width="380" height="190" fill="#f8fafc"/><rect x="180" y="405" width="540" height="100" rx="26" fill="#dfe6ee"/><circle cx="270" cy="330" r="58" fill="#f0c8ae"/><path d="M205 590c18-105 116-105 132 0" fill="#071b33"/><circle cx="470" cy="330" r="48" fill="#c8b0a0"/><path d="M420 585c15-95 100-95 116 0" fill="#6b7785"/><circle cx="610" cy="330" r="52" fill="#d8a88d"/><path d="M552 590c16-100 112-100 128 0" fill="#ffffff" stroke="#d8dde4"/><path d="M210 270c36-55 100-34 115 0" fill="#1f2a38"/><path d="M429 286c25-36 76-28 94 0" fill="#8d8d8d"/><path d="M560 288c30-45 92-40 110 0" fill="#2d1e25"/><rect x="110" y="540" width="680" height="16" rx="8" fill="#08a5df"/><text x="450" y="665" text-anchor="middle" font-family="Inter,Arial" font-size="28" font-weight="900" fill="#071b33">Conseil, stratégie et exécution digitale</text></svg>
