<svg xmlns="http://www.w3.org/2000/svg" width="1200" height="780" viewBox="0 0 1200 780" role="img" aria-label="Portfolio Good Talents">
<rect width="1200" height="780" fill="#fff"/><text x="600" y="90" text-anchor="middle" font-family="Inter,Arial" font-size="58" font-weight="900" fill="#8c939c">Good Talents</text><text x="600" y="130" text-anchor="middle" font-family="Inter,Arial" font-size="28" fill="#8c939c">interface d’administration</text><rect x="45" y="230" width="520" height="270" fill="#f2f5f8" stroke="#d8dde4"/><rect x="45" y="230" width="520" height="52" fill="white"/><text x="72" y="263" font-family="Inter,Arial" font-size="16" font-weight="900" fill="#ef3f4b">GOOD★TALENTS</text><rect x="90" y="318" width="85" height="55" fill="white"/><rect x="190" y="318" width="85" height="55" fill="white"/><rect x="290" y="318" width="85" height="55" fill="white"/><rect x="390" y="318" width="85" height="55" fill="white"/><rect x="95" y="405" width="220" height="75" fill="white"/><polyline points="110,465 150,460 195,470 240,455 300,430" fill="none" stroke="#ef777d" stroke-width="4"/><rect x="345" y="405" width="195" height="75" fill="white"/><circle cx="445" cy="442" r="42" fill="#c9443f"/><rect x="590" y="220" width="560" height="285" fill="#f2f5f8" stroke="#d8dde4"/><rect x="610" y="245" width="90" height="248" fill="white"/><text x="720" y="268" font-family="Inter,Arial" font-size="20" font-weight="800" fill="#647282">Liste des candidats</text><g fill="white"><rect x="720" y="290" width="125" height="70"/><rect x="860" y="290" width="125" height="70"/><rect x="1000" y="290" width="125" height="70"/><rect x="720" y="375" width="125" height="70"/><rect x="860" y="375" width="125" height="70"/><rect x="1000" y="375" width="125" height="70"/></g><g font-family="Inter,Arial" font-size="18" font-weight="800" fill="#6ccfc1"><text x="735" y="323">Candidat 1</text><text x="875" y="323">Nom candidat</text><text x="1015" y="323">Profil CV</text><text x="735" y="408">Rendez-vous</text><text x="875" y="408">Facturation</text><text x="1015" y="408">Classé</text></g><g font-family="Inter,Arial" font-size="28" fill="white"><rect x="360" y="575" width="160" height="145" fill="#08a5df"/><text x="440" y="650" text-anchor="middle">Gestion des</text><text x="440" y="686" text-anchor="middle">candidatures</text><rect x="520" y="575" width="160" height="145" fill="#3e4848"/><text x="600" y="650" text-anchor="middle">Gestion</text><text x="600" y="686" text-anchor="middle">facturation</text><rect x="680" y="575" width="160" height="145" fill="#55b9e8"/><text x="760" y="650" text-anchor="middle">Classification</text><text x="760" y="686" text-anchor="middle">des CV</text></g></svg>
